<svg clip-rule="evenodd" fill-rule="evenodd" height="6.82666in" image-rendering="optimizeQuality" shape-rendering="geometricPrecision" text-rendering="geometricPrecision" viewBox="0 0 6.82666 6.82666" width="6.82666in" xmlns="http://www.w3.org/2000/svg" xmlns:xlink="http://www.w3.org/1999/xlink"><clipPath id="a"><path d="m3.41333-.00000394c1.88513 0 3.41333 1.5282 3.41333 3.41333s-1.5282 3.41333-3.41333 3.41333-3.41333-1.5282-3.41333-3.41333 1.5282-3.41333 3.41333-3.41333z"/></clipPath><path d="m3.41333-.00000394c1.88513 0 3.41333 1.5282 3.41333 3.41333s-1.5282 3.41333-3.41333 3.41333-3.41333-1.5282-3.41333-3.41333 1.5282-3.41333 3.41333-3.41333z" fill="#4dd0e1"/><g clip-path="url(#a)" fill="#26c6da"><path d="m4.20599 3.19051 3.78627 3.78627.00443.02.00338.02.00236.01995.00135.01989.00037.01978-.00061.01966-.00156.0195-.0025.01931-.00342.01909-.00432.01884-.00521.01855-.00607.01825-.00693.01791-.00775.01754-.00857.01714-.00937.01671-.01014.01625-.01091.01576-.01165.01524-.01238.01468-.01309.01411-.01378.0135-.01446.01285-.01511.01219-.01575.01148-.01638.01075-.01697.00999-.01757.0092-.01813.00838-.01869.00752-.01922.00665-.01974.00573-3.78627-3.78627.01974-.00573.01922-.00665.01869-.00753.01813-.00837.01757-.0092.01698-.00999.01637-.01075.01575-.01149.01512-.01218.01445-.01285.01378-.0135.01309-.01411.01238-.01469.01165-.01523.01091-.01576.01014-.01625.00937-.01671.00857-.01714.00775-.01754.00693-.01791.00607-.01825.00521-.01856.00432-.01883.00342-.0191.0025-.0193.00156-.0195.00061-.01966-.00036-.01978-.00136-.01989-.00236-.01996-.00338-.01999z"/><path d="m2.86126 3.64958 3.78626 3.78627.0255.02763.02205.02865.01872.02949.01546.03016.01231.03064.00925.03094.00628.03107.0034.03101.00062.03077-.00207.03036-.00466.02976-.00716.02898-.00957.02803-.01189.02689-.0141.02557-.01623.02407-3.78627-3.78627.01623-.02407.01411-.02557.01188-.02689.00957-.02803.00716-.02898.00467-.02976.00206-.03036-.00062-.03077-.0034-.03101-.00628-.03107-.00925-.03094-.01231-.03065-.01546-.03015-.01871-.0295-.02206-.02865z"/><path d="m2.90916 4.1136 3.78627 3.78627.00267.00409.00267.00408.00267.00409.00266.00409.00266.00409.00266.0041.00265.0041.00265.0041.00265.0041.00265.0041.00265.0041.00264.00411.00265.00411.00264.0041.00264.00411.00265.0041.00264.00412.00264.0041.00265.00411.00264.00411.00265.00411.00265.0041.00265.00411.00266.00411.00266.0041.00266.00411.00266.0041.00267.0041.00267.0041.00268.0041.00268.00409.00269.0041-3.78627-3.78628-.00269-.00409-.00268-.00409-.00267-.0041-.00268-.0041-.00267-.0041-.00266-.00411-.00266-.0041-.00266-.0041-.00265-.00411-.00265-.00411-.00265-.0041-.00265-.00411-.00265-.00411-.00264-.00411-.00265-.00411-.00264-.00411-.00264-.0041-.00265-.00411-.00264-.00411-.00264-.0041-.00265-.00411-.00264-.0041-.00265-.0041-.00265-.00411-.00265-.00409-.00266-.0041-.00265-.0041-.00267-.00409-.00266-.00409-.00267-.00409-.00267-.00408z"/><path d="m3.30232 3.47759 3.78627 3.78627-.01384.00545-.01398.00492-.01413.00439-.01424.00386-.01435.00332-.01444.0028-.01451.00227-.01457.00174-.01462.00121-.01464.00068-.01465.00015-.01465-.00038-.01463-.00091-.01459-.00144-.01455-.00197-.01448-.0025-.01439-.00302-.0143-.00356-.01419-.00409-.01405-.00462-.01392-.00514-.01375-.00568-.01358-.0062-.01338-.00673-.01318-.00727-.01296-.00779-.01272-.00832-.01247-.00885-.0122-.00938-.01191-.0099-.01162-.01044-.0113-.01096-3.78626-3.78628.01129.01097.01162.01044.01191.0099.0122.00938.01247.00885.01272.00832.01296.00779.01318.00726.01339.00674.01357.0062.01376.00567.01391.00515.01405.00462.01419.00408.0143.00356.0144.00303.01447.0025.01455.00197.01459.00144.01463.00091.01465.00038.01465-.00015.01465-.00068.01461-.00121.01457-.00174.01451-.00227.01444-.0028.01435-.00333.01424-.00385.01413-.00439.01398-.00492z"/><path d="m1.92595 3.50823 3.78627 3.78627-.01615-.0144-3.78627-3.78627z"/><path d="m2.88383 4.14361 3.78627 3.78628-.01202.01187-.01265.01117-.01328.01044-.01387.00966-.01446.00886-.01501.00802-.01556.00715-.01608.00622-.01659.00527-.01707.00429-.01754.00326-.01799.0022-.01841.00111-.01883-.00004-.01922-.00119-.01959-.00241-.01995-.00364-.02028-.00493-.0206-.00624-.02089-.00759-.02118-.00898-.02143-.0104-.02168-.01186-.0219-.01335-.02209-.01489-.02229-.01646-.02245-.01807-.0226-.0197-3.78627-3.78627.0226.0197.02245.01807.02229.01645.0221.01489.02189.01336.02168.01186.02143.0104.02118.00898.02089.00759.0206.00624.02029.00492.01994.00365.01959.00241.01922.00119.01883.00003.01842-.0011.01798-.0022.01754-.00326.01707-.00429.01659-.00527.01608-.00623.01556-.00714.01502-.00802.01445-.00886.01388-.00967.01327-.01044.01265-.01117z"/><path d="m2.33505 5.2607 3.78626 3.78627-.00663.00507-.00698.00428-.00727.00352-.00749.00274-.00766.00199-.00777.00122-.00782.00047-.00782-.00028-.00776-.00102-.00764-.00176-.00746-.00249-.00723-.00323-.00693-.00394-.00658-.00467-3.78627-3.78627.00658.00467.00694.00394.00722.00323.00746.00249.00764.00176.00776.00102.00782.00028.00782-.00047.00778-.00122.00766-.00199.00749-.00274.00726-.00352.00698-.00429z"/><path d="m3.1291 4.33696 3.78627 3.78627-.00306.00519-.00306.00519-.00307.00518-.00309.00518-.00309.00518-.00311.00516-.00311.00517-.00313.00516-.00314.00516-.00315.00515-.00316.00515-.00317.00515-.00318.00514-.00319.00513-.00321.00514-.00321.00512-3.78627-3.78627.00322-.00512.0032-.00514.00319-.00513.00318-.00514.00317-.00515.00316-.00515.00315-.00515.00314-.00516.00313-.00516.00312-.00517.0031-.00517.0031-.00517.00308-.00518.00307-.00519.00307-.00518z"/><path d="m3.07897 4.41951 3.78627 3.78627-.01805.02839-.01839.02826-.01872.02811-.01906.02798-.01939.02785-.01973.02771-.02007.02757-.02039.02744-.02074.0273-.02107.02717-.02141.02703-.02174.0269-.02207.02676-.02241.02662-.02275.0265-.02308.02635-.02342.02622-.02375.02608-.02409.02595-.02442.02581-.02476.02568-.02509.02554-.02543.02541-.02576.02527-.0261.02513-.02643.025-.02676.02487-.0271.02473-.02744.02459-.02777.02446-.0281.02432-.02844.02419-3.78626-3.78627.02843-.02419.02811-.02432.02776-.02446.02744-.02459.0271-.02473.02676-.02487.02644-.025.02609-.02513.02576-.02528.02543-.0254.02509-.02554.02476-.02568.02442-.02581.02409-.02595.02375-.02608.02342-.02622.02308-.02636.02275-.02649.02241-.02662.02208-.02676.02174-.0269.0214-.02703.02107-.02717.02074-.0273.0204-.02744.02006-.02757.01973-.02772.0194-.02784.01905-.02798.01872-.02812.01839-.02825z"/><path d="m2.8597 2.82375 3.78627 3.78627-.01953-.00617-.01901-.00706-.01847-.00794-.01789-.00877-.01732-.00958-.01672-.01035-.0161-.0111-.01548-.01182-.01482-.01251-.01416-.01316-3.78627-3.78627.01416.01316.01483.01251.01547.01182.0161.0111.01672.01035.01732.00958.0179.00877.01846.00794.01901.00706z"/><path d="m3.46695 3.49043 3.78627 3.78627-.00615.0259-.00636.02581-.00658.02573-.00679.02565-.00701.02556-.00722.02548-.00744.02539-.00766.0253-.00788.02523-.00809.02514-.0083.02505-.00852.02497-.00874.02488-.00896.0248-.00917.02472-.00938.02463-.0096.02455-.00982.02446-.01003.02438-.01025.02429-.01047.02421-.01067.02413-.0109.02404-.01111.02395-.01133.02388-.01154.02378-.01176.0237-.01197.02363-.01219.02353-.0124.02345-.01263.02337-.01283.02328-3.78627-3.78627.01284-.02328.01262-.02337.0124-.02345.01219-.02353.01197-.02363.01176-.0237.01154-.02378.01133-.02388.01111-.02396.0109-.02403.01068-.02413.01046-.02421.01025-.02429.01003-.02438.00982-.02446.0096-.02455.00939-.02463.00917-.02472.00895-.0248.00874-.02488.00852-.02497.00831-.02506.00809-.02513.00787-.02523.00766-.02531.00744-.02538.00722-.02548.00701-.02556.0068-.02565.00657-.02573.00636-.02581z"/><path d="m3.9176 3.67691 3.78627 3.78627-.0168.00405-.0168.00331-.01679.00258-.01675.00186-.0167.00115-.01663.00044-.01655-.00024-.01644-.00092-.01632-.00159-.01618-.00225-.01603-.00289-.01585-.00353-.01566-.00416-.01544-.00478-.01522-.00538-.01497-.00598-.01471-.00656-.01443-.00714-.01412-.0077-.01381-.00825-.01348-.0088-.01312-.00934-.01274-.00985-.01237-.01037-.01195-.01087-.01153-.01136-3.78626-3.78627.01152.01136.01196.01087.01236.01037.01275.00985.01312.00934.01347.0088.01381.00825.01412.0077.01443.00714.01471.00656.01497.00598.01522.00538.01544.00478.01566.00415.01585.00354.01603.00289.01618.00225.01632.00159.01644.00092.01655.00024.01663-.00045.0167-.00115.01676-.00185.01678-.00258.0168-.00331z"/><path d="m3.35868 4.31219 3.78627 3.78627-.00705.0008-.00706.0008-.00706.0008-.00707.0008-.00708.00081-.00707.00081-.0071.00081-.00709.00082-.0071.00081-.00711.00081-.00712.00082-.00712.00081-.00714.00081-.00714.00081-.00715.0008-.00716.0008-.00716.0008-.00719.00079-.00718.00079-.0072.00078-.00721.00077-.00722.00077-.00723.00076-.00724.00075-.00724.00074-.00727.00074-.00727.00072-.00729.00071-.0073.0007-.00731.00069-.00732.00068-.00733.00066-3.78627-3.78627.00733-.00066.00733-.00068.00731-.00069.0073-.0007.00728-.00071.00728-.00072.00726-.00074.00725-.00074.00724-.00075.00723-.00076.00722-.00077.0072-.00077.0072-.00078.00719-.00079.00718-.00079.00716-.0008.00716-.0008.00715-.00081.00715-.0008.00713-.00081.00713-.00082.00711-.00081.00711-.00081.0071-.00082.0071-.00081.00709-.00081.00708-.00081.00707-.00081.00707-.0008.00706-.00081.00706-.0008z"/><path d="m3.76645 1.68516 3.78627 3.78627.01238.01492.01169.01558.01097.01619.01022.01681.00943.0174.00862.01797.00778.01853.00691.01906.00601.01959-3.78627-3.78627-.00601-.01959-.0069-.01906-.00779-.01854-.00862-.01796-.00943-.0174-.01022-.01681-.01097-.0162-.01169-.01557z"/><path d="m4.43 1.8627 3.78626 3.78628.0132.01547.01228.01596.01138.01642.01047.01684.00957.01722.00865.01757.00775.01788.00685.01817.00593.01841.00503.01862.00413.01879.00322.01894.00231.01904.00141.01912.0005.01915-.0004.01915-.00131.01912-.00221.01905-.00312.01894-.00402.01881-.00493.01864-.00582.01843-.00674.01819-.00764.0179-.00854.0176-.00944.01725-.01035.01687-.01125.01645-.01215.016-.01306.01552-.01396.015-3.78627-3.78628.01396-.01499.01306-.01552.01215-.016.01125-.01645.01035-.01687.00944-.01725.00854-.0176.00764-.01791.00674-.01819.00583-.01842.00492-.01864.00402-.01881.00312-.01894.00221-.01906.00131-.01911.0004-.01915-.0005-.01915-.00141-.01912-.00231-.01904-.00322-.01894-.00412-.01879-.00504-.01862-.00593-.01841-.00684-.01817-.00775-.01788-.00866-.01757-.00957-.01722-.01047-.01684-.01137-.01642-.01229-.01596z"/><path d="m4.60069 2.52547 3.78627 3.78627.01277.01439.01205.01494.01131.01549.01056.01599.00978.01647.009.01691.0082.01732.00737.01771.00653.01807.00567.01839.0048.01868.0039.01894.003.01918.00207.01939.00112.01955.00017.0197-.00082.01981-.00181.0199-.00282.01995-.00386.01996-.0049.01996-3.78627-3.78627.0049-.01996.00386-.01997.00282-.01994.00181-.0199.00082-.01981-.00016-.0197-.00113-.01956-.00207-.01938-.003-.01918-.0039-.01894-.0048-.01868-.00567-.01839-.00653-.01807-.00737-.01771-.00819-.01732-.009-.01692-.00979-.01646-.01056-.01599-.01131-.01549-.01205-.01495z"/><path d="m4.69478 2.90617 3.78627 3.78627-.0059.01969-.0068.01917-.00768.01861-.00853.01807-.00935.01748-.01013.01689-.01089.01629-.01161.01565-.01231.01501-.01298.01435-.01361.01366-.01421.01297-.01479.01226-.01533.01152-.01586.01078-.01633.01001-.01678.00923-.01722.00842-.0176.00761-.01797.00678-.0183.00592-.0186.00505-.01887.00417-.01912.00326-.01933.00234-.01951.00141-.01966.00044-.01978-.00052-.01987-.00152-.01994-.00252-.01997-.00355-.01996-.00459-3.78627-3.78627.01997.00459.01996.00355.01994.00252.01987.00152.01978.00052.01966-.00045.01952-.0014.01932-.00234.01912-.00326.01887-.00417.01861-.00505.0183-.00592.01796-.00678.01761-.00761.01721-.00842.01678-.00923.01634-.01001.01585-.01078.01533-.01152.01479-.01226.01422-.01297.01361-.01367.01297-.01434.01231-.01501.01161-.01565.01089-.01629.01013-.01689.00935-.01749.00853-.01806.00768-.01862.0068-.01916z"/><path d="m4.52257 4.26506 3.78626 3.78627.06502.07261.06546.08038.06577.08842.06597.09671.06606.10526.06602.11407-3.78627-3.78627-.06602-.11407-.06606-.10526-.06597-.09671-.06577-.08842-.06545-.08038z"/><path d="m4.91686 4.82251 3.78627 3.78627-.02982-.00532-.02981-.00442-.0298-.00358-.02974-.00276-.0297-.00202-.02962-.00131-.02953-.00066-.02943-.00005-.02931.00051-.02918.001-.02903.00147-.02886.00187-.02868.00223-.02849.00254-.02826.00279-.02805.00301-.02779.00316-.02754.00328-.02726.00334-.02697.00335-.02667.00331-.02633.00322-.026.00309-.02565.00291-.02528.00267-.02489.00238-.02449.00204-.02407.00167-.02364.00124-.02318.00074-.02273.00022-.02225-.00036-3.78627-3.78627.02225.00036.02273-.00022.02319-.00075.02363-.00123.02408-.00167.02449-.00204.02489-.00239.02527-.00267.02565-.0029.026-.00309.02634-.00322.02666-.00331.02697-.00335.02726-.00334.02754-.00328.0278-.00316.02804-.00301.02827-.0028.02848-.00254.02868-.00222.02886-.00187.02903-.00147.02918-.00101.02931-.0005.02943.00005.02953.00066.02963.00131.02969.00202.02975.00276.02979.00357.02981.00443z"/><path d="m4.04481 4.85407 3.78627 3.78627-.04922-.00228-.04719-.00374-.04519-.00516-.04321-.00653-.04125-.00783-.03931-.00909-.03741-.0103-.03551-.01145-.03366-.01256-.03181-.0136-.03-.0146-.0282-.01555-.02643-.01645-.0247-.01727-.02297-.01808-.02127-.01881-3.78627-3.78627.02128.01881.02296.01807.0247.01728.02643.01645.02821.01555.03.0146.03181.0136.03365.01256.03552.01145.0374.0103.03932.00909.04124.00783.04321.00653.04519.00516.04719.00374z"/><path d="m3.36982 4.25835c.113894-.417484.843409-.700492 1.54704.564161-.318091-.0617559-.637378.0386969-.872047.031563-.535953-.0162913-.721555-.291878-.686134-.541878-.075185.00842913-.151264.0177638-.229583.0247638-.0162441.0277008-.0329528.0552205-.0501299.0825551-.19074.303531-.438807.583902-.743921.841189-.0343819.0290906-.0858346.0248031-.114925-.00957874-.0290906-.034378-.0248031-.0858346.0095748-.114925.292528-.246673.52974-.514484.711362-.803512.010252-.016311.0203268-.0326929.0302244-.0491457-.0306496-.0470945-.0589882-.0939606-.0874488-.139925-.124748.130193-.361382.147567-.606996-.146189-.107547-.128626-.192016-.352228-.367035-.503594 1.02057-.162878 1.18352.371618.999354.619772.0285669.0435354.0563228.0875787.0850157.131232.140039-.240984.242803-.496717.308146-.767248-.146701.0609567-.322004.0314134-.440783-.0883622-.155291-.156551-.155575-.408433-.00183071-.565476-.211146-.0608937-.335039-.280181-.277067-.492929.0579528-.212768.275933-.338941.488807-.284343-.0528425-.213303.0751496-.430236.288354-.486406.21326-.0562008.431512.0694764.490661.281138.158299-.152413.410161-.150028.565433.00654724.15526.156555.155543.408425.00183858.565469.211142.0608937.335.280181.277047.492949-.0579528.212728-.275933.338909-.488787.284335.0528346.213303-.0751496.43022-.288394.486402-.179083.0471969-.361717-.0339094-.45065-.18648-.0643898.276705-.165689.53898-.303748.786866.0690433-.00598031.137764-.013063.206618-.0189488z"/></g><path d="m3.41333-.00000394c1.88513 0 3.41333 1.5282 3.41333 3.41333s-1.5282 3.41333-3.41333 3.41333-3.41333-1.5282-3.41333-3.41333 1.5282-3.41333 3.41333-3.41333z" fill="none"/><path d="m4.91686 4.82251c-.318091-.0617559-.637378.0386969-.872047.031563-1.48884-.045252-.274067-2.09149.872047-.031563z" fill="#689f38"/><g fill="#558b2f"><path d="m3.11051 4.2816c.342051-.0260394.673362-.0932874 1.04905.0758386.152232.0685315.192472.0742559.331303.177512l-.00151575-.0011063c.0523307.0474961.0664921.0737835.105756.128492-.0409094-.0364213-.0131457-.00917717-.0569016-.0584449-.105366-.118638-.248445-.159303-.390469-.218472-.399563-.166465-.716898-.0671535-1.09356-.0426339l.0563386-.061185z"/><path d="m4.03692 4.31297c.0198031.0179646.0393622.0370827.0586496.0575157.096815.102567.126398.12.201559.245374l-.00082677-.00135039c.025563.0539567.0281575.0790472.0411929.134425-.0202126-.041622-.00731102-.0114016-.0256063-.0639764-.0440709-.126606-.142713-.204461-.234575-.296433-.0201811-.0202047-.0404921-.0389843-.060937-.0564843.00902756-.00349213.0163819-.0103504.0205433-.0190709z"/><path d="m3.71716 4.24731c.00105118.00110236.0021063.0021811.00315748.00329528.114594.121406.14961.142039.238571.290437l-.00098032-.00160236c.0302638.0638661.0333307.0935669.0487598.159114-.0239252-.0492677-.00865354-.0134961-.0303071-.0757244-.0521654-.149858-.168921-.242012-.277654-.35087l-.00235433-.00232677c.00929134-.00476772.0167008-.0127126.0208071-.0223228z"/><path d="m4.1868 4.39781c.0177835-.0017126.0354016-.00419685.0528386-.00755118.0875315-.0168583.113713-.0140079.183531-.0534094l-.00076772.00042126c.0242126-.0199094.0274646-.0332126.0409488-.0593898-.0190984.0151417-.00675984.00337402-.0246575.0256496-.0431024.0536417-.131201.0554882-.214035.0684055-.0182008.00283465-.0364528.00479528-.0547638.00596457.00762992.00593701.0136811.0130827.0169055.0199094z"/><path d="m3.80645 4.28181c.00112992-.00021654.00226378-.00041339.0033937-.00063386.123567-.0242126.158094-.0211299.264646-.0744016l-.00116535.00056693c.0388701-.0266417.0473622-.0441299.0736535-.0787165-.0304921.0202874-.0101811.00458661-.0412362.0341732-.0748031.0712441-.194516.0758307-.310516.0947717l-.00250787.00038976c.00715354.00733858.0120433.0158307.0137323.0238504z"/></g><path d="m1.9098 3.49383c.17502.151362.259488.374965.367035.503587.682299.816039 1.29531-.768894-.367035-.503587z" fill="#689f38"/><path d="m3.01051 4.26946c-.136295-.203551-.244713-.419256-.505437-.555594-.10565-.0552402-.126618-.075311-.24585-.107709l.00129134.00036221c-.0497598-.00842913-.0707677-.00477953-.118811-.00268898.0385.00689764.0109528.00333071.0579213.00616535.11311.0068189.199067.0692165.294957.122858.269764.150913.354008.372917.506429.59524l.0095-.0586339z" fill="#558b2f"/><path d="m2.58415 3.76312c-.0188228-.00319685-.038189-.00574409-.0581693-.00755906-.100311-.0091063-.123154-.0180276-.226713-.00491339l.00112598-.00013386c-.0415787.00945276-.056811.0190669-.0936575.0361811.0322913-.00701575.00962598-.0009252.0472205-.0138504.0905354-.0311142.177776-.0100748.269949.00092913.020248.00241732.039752.00553543.0585984.00929528-.00201969-.00661024-.00141339-.0137677.00164567-.0199488z" fill="#558b2f"/><path d="m2.7621 3.9137c-.00108268-.00010236-.00215748-.00022441-.00324409-.0003189-.118732-.0107835-.145768-.0213386-.268346-.0058189l.00133465-.00015748c-.0492126.011189-.0672441.0225669-.110858.0428228.0382205-.00830315.0113976-.00109449.0558937-.0163898.107161-.0368268.210421-.0119252.31952.00109449l.00234646.00029921c-.0014252-.00732283-.00023228-.0149882.00335433-.0215315z" fill="#558b2f"/><path d="m2.47039 3.71639c-.00688583-.0107402-.0132638-.0217283-.0190709-.033-.0291575-.0565866-.0423071-.0700315-.0509882-.126618l.00010236.00061417c.00049606-.022378.0065315-.0300748.0152835-.0491969-.00007874.0174055.00108268.00528346-.00352756.0251614-.0111024.047874.0267323.0981535.0560276.150366.00643701.0114724.0133858.0225827.020811.0333819-.00670079-.00166535-.0133819-.00190945-.0186378-.00070866z" fill="#558b2f"/><path d="m2.70333 3.87878c-.00037795-.00073228-.00076772-.00145669-.00114173-.00218898-.0409213-.0800669-.0578858-.0980945-.0749882-.181429l.00020079.00090551c-.00219291-.0335787.00387795-.0460669.0117008-.0760866.00206299.0260709.00191732.00774016-.00099606.0382323-.007.073437.0432441.142681.0837874.216173l.00088976.00157874c-.00727953-.00077953-.0142047.00022047-.0194528.00281496z" fill="#558b2f"/><path d="m3.47879 3.43746c.00934252-.0440748-.018811-.0873819-.0628858-.0967244-.0440748-.00934252-.0873858.018811-.0967283.0628898-.0710354.331441-.197161.641102-.378114.929059-.181622.289028-.418835.556839-.711362.803512-.034378.0290906-.0386654.0805472-.0095748.114925.0290906.0343819.0805433.0386693.114925.00957874.305114-.257287.553181-.537657.743921-.841189.191413-.304602.32478-.631925.399819-.982051z" fill="#73ab3e" fill-rule="nonzero"/><path d="m4.20599 3.19051c.212854.0545748.430835-.0716063.488787-.284335.0579528-.212768-.0659055-.432055-.277047-.492949.153705-.157043.153421-.408913-.00183858-.565469-.155272-.156575-.407134-.158961-.565433-.00654724-.0591496-.211661-.277402-.337339-.490661-.281138-.213205.0561693-.341197.273102-.288354.486406-.212874-.0545984-.430854.0715748-.488807.284343-.0579724.212748.0659213.432035.277067.492929-.153744.157043-.153461.408925.00183071.565476.155276.156575.407138.158953.565437.00653937.0591378.211642.277402.337343.490626.281146.213244-.0561811.341228-.273098.288394-.486402z" fill="#de555e"/><path d="m4.09124 2.66728c.126701-.0550984.186157-.201878.132783-.329827-.0533937-.127957-.199524-.188965-.327811-.137657.0156417-.13728-.0817441-.262161-.21924-.279909-.137504-.017748-.263417.078311-.283126.215067-.111075-.0821969-.267906-.0603071-.352039.0499252-.0841181.110193-.063874.267264.0447047.352713-.12672.0550945-.186181.20187-.132787.329835.0533701.127961.19952.188945.327811.137642-.0156614.137295.0817283.262185.21924.279917.137508.0177441.263413-.0783189.283122-.215075.111067.0822008.267909.0603071.352028-.0499055.084126-.110217.0638937-.267276-.044685-.352724z" fill="#c54b4d"/><path d="m3.89878 2.68804c.0845433-.023315.135012-.110248.112894-.195417-.0221299-.0851772-.108516-.136563-.193717-.115772.0220866-.084878-.0279646-.172051-.112783-.195476-.0848268-.0234291-.172531.0256969-.197126.109874-.0624646-.0615709-.162976-.061815-.225689-.00005512-.0626969.0617402-.064.162252-.00339764.225646-.0845512.023311-.13502.11024-.11289.195421.0221142.0851811.108512.136551.193717.115764-.0221024.0848819.0279528.172063.112783.19548.0848307.0234291.172528-.0257008.197122-.109882.0624567.0615748.16298.0618189.225681.00006693.0627047-.061752.0640118-.16226.00340551-.22565z" fill="#aa4340"/><path d="m3.68987 2.63034c.0275512-.00759843.044-.0359331.0367913-.063689-.0072126-.0277598-.0353661-.0445039-.0631339-.0377323.00720079-.0276575-.00911417-.0560709-.0367559-.0637047-.0276457-.00763386-.0562283.00837402-.0642441.035811-.0203583-.0200669-.0531142-.0201496-.0735512-.00001968-.0204331.020122-.0208583.052878-.0011063.0735394-.0275591.00759449-.0440039.0359252-.0367953.063689.00720866.0277598.0353661.0445.0631339.0377283-.00720079.0276614.00911024.0560748.0367559.0637047.0276496.0076378.0562283-.00837402.0642441-.035811.0203543.0200669.0531142.0201496.0735512.00002362.020437-.020126.0208622-.0528819.00111024-.0735394z" fill="#391f0b"/></svg>